<?xml version="1.0" encoding="utf-8"?>
<!-- Generator: Adobe Illustrator 27.5.0, SVG Export Plug-In . SVG Version: 6.00 Build 0)  -->
<svg version="1.1" xmlns="http://www.w3.org/2000/svg" xmlns:xlink="http://www.w3.org/1999/xlink" x="0px" y="0px"
	 viewBox="0 0 500 500" style="enable-background:new 0 0 500 500;" xml:space="preserve">
<g id="Background_Simple">
	<g>
		<path style="fill:#92E3A9;" d="M466.549,377.369c35.578-84.168,40.078-203.124-21.243-277.013
			c-33.82-40.751-87.037-54.301-137.841-57.33c-45.527-2.715-94.262-1.63-135.626,19.896
			C101.727,99.41,99.997,186.172,47.48,237.365c-42.343,41.276-59.9,100.094-23.754,177.486
			c36.147,77.392,103.276,94.935,169.373,70.169c66.097-24.766,96.047-29.925,175.571-17.542
			c36.55,5.691,63.07-21.715,79.106-51.238C454.651,403.582,460.954,390.604,466.549,377.369z"/>
		<path style="opacity:0.7;fill:#FFFFFF;" d="M466.549,377.369c35.578-84.168,40.078-203.124-21.243-277.013
			c-33.82-40.751-87.037-54.301-137.841-57.33c-45.527-2.715-94.262-1.63-135.626,19.896
			C101.727,99.41,99.997,186.172,47.48,237.365c-42.343,41.276-59.9,100.094-23.754,177.486
			c36.147,77.392,103.276,94.935,169.373,70.169c66.097-24.766,96.047-29.925,175.571-17.542
			c36.55,5.691,63.07-21.715,79.106-51.238C454.651,403.582,460.954,390.604,466.549,377.369z"/>
	</g>
</g>
<g id="Clouds">
	<g>
		<path style="fill:none;stroke:#263238;stroke-miterlimit:10;" d="M325.432,52.045c-4.754-21.358-29.372-37.275-50.831-34.226
			c-5.348,0.76-10.552,2.761-14.569,6.458c-5.479,5.042-4.18,10.764-6.893,17.01c-0.753,1.734-2.221,3.274-4.087,3.594
			c-5.336,0.915-9.636-4.405-15.04-4.444c-4.04-0.029-9.206,2.202-11.459,5.691c-2.098,3.248-0.636,8.918-4.413,11.075
			c-4.224,2.412-9.361-2.176-13.927-0.516c-5.674,2.063-3.095,6.19-5.158,8.769c-2.063,2.579-6.19,1.548-11.864,1.032
			c-5.674-0.516-10.316,6.19-10.316,6.19h178.99c0,0,1.548-2.579-5.158-12.896c-6.706-10.316-15.99-3.095-20.117-3.095
			C326.467,56.688,325.434,52.053,325.432,52.045z"/>
		<path style="fill:none;stroke:#263238;stroke-miterlimit:10;" d="M137.514,128.694c-3.23-14.51-19.955-25.325-34.534-23.253
			c-3.634,0.516-7.169,1.876-9.899,4.388c-3.723,3.425-2.84,7.313-4.683,11.557c-0.512,1.178-1.509,2.224-2.777,2.442
			c-3.626,0.622-6.547-2.993-10.218-3.019c-2.745-0.02-6.254,1.496-7.785,3.867c-1.426,2.207-0.432,6.059-2.998,7.524
			c-2.87,1.639-6.36-1.479-9.462-0.351c-3.855,1.402-2.103,4.205-3.504,5.958c-1.402,1.752-4.205,1.051-8.06,0.701
			c-3.855-0.351-7.009,4.205-7.009,4.205h121.606c0,0,1.051-1.752-3.505-8.761c-4.556-7.009-10.864-2.103-13.668-2.103
			C138.217,131.848,137.516,128.699,137.514,128.694z"/>
		<path style="fill:none;stroke:#263238;stroke-miterlimit:10;" d="M474.615,195.714c-2.14-9.615-13.222-16.78-22.882-15.407
			c-2.408,0.342-4.75,1.243-6.559,2.907c-2.467,2.27-1.882,4.846-3.103,7.658c-0.339,0.78-1,1.474-1.84,1.618
			c-2.402,0.412-4.338-1.983-6.77-2.001c-1.819-0.013-4.144,0.991-5.159,2.562c-0.944,1.462-0.286,4.015-1.986,4.986
			c-1.902,1.086-4.214-0.98-6.27-0.232c-2.554,0.929-1.393,2.786-2.322,3.947c-0.929,1.161-2.787,0.697-5.341,0.464
			c-2.554-0.232-4.644,2.786-4.644,2.786h80.575c0,0,0.697-1.161-2.322-5.805c-3.019-4.644-7.198-1.393-9.056-1.393
			C475.081,197.804,474.615,195.718,474.615,195.714z"/>
	</g>
</g>
<g id="Mountains">
	<g>
		<g>
			<path style="fill:none;stroke:#263238;stroke-miterlimit:10;" d="M8.656,317.013c0,0,178.895-119.079,192.187-116.863
				c13.292,2.215,137.708,99.311,137.708,99.311"/>
			<path style="fill:none;stroke:#263238;stroke-miterlimit:10;" d="M158.75,221.197c0,0,9.969-3.323,9.969-0.554
				c0,2.769-3.877,8.308,0,8.862c3.877,0.554,25.477-12.739,25.477-12.739s2.215,10.523,6.646,11.631
				c4.431,1.108,4.985-9.416,4.985-9.416l5.538,4.431v-6.092l9.577,3.55l-0.161-7.981"/>
		</g>
		<g>
			<path style="fill:none;stroke:#263238;stroke-miterlimit:10;" d="M243.168,361.612c0,0,178.895-119.079,192.187-116.863
				c13.292,2.215,56.011,36.35,56.011,36.35"/>
			<path style="fill:none;stroke:#263238;stroke-miterlimit:10;" d="M393.262,265.795c0,0,9.969-3.323,9.969-0.554
				c0,2.769-3.877,8.308,0,8.862c3.877,0.554,25.477-12.739,25.477-12.739s2.215,10.523,6.646,11.631
				c4.431,1.108,4.985-9.415,4.985-9.415l5.539,4.431v-6.092l9.577,3.55l-0.161-7.981"/>
		</g>
	</g>
</g>
<g id="Trees">
	<g>
		<path style="fill:#92E3A9;" d="M377.608,321.1c0,0,0,0,1.526-6.104c1.526-6.104,0-39.296,0.382-41.966
			c0.382-2.671-5.723,13.734-5.723,13.734s1.908-7.63,2.289-12.59c0.247-3.207,1.131-19.65,1.519-32.626
			c-0.479-5.025-0.998-10.066-1.553-15.083c-1.602,3.951-3.781,13.755-3.781,13.755s-1.145-33.573,0-37.388
			c1.145-3.815-4.96,5.723-4.96,5.723s1.908-14.116,2.289-19.839c0.225-3.375-1.01-12.323-2.061-19.645
			c-0.686-3.435-1.391-6.728-2.113-9.856c-1.534,3.037-4.896,12.37-4.601,11.189c0.381-1.526,0-26.706,0-26.706l0.284-0.402
			c-3.494-10.708-7.284-17.175-11.244-17.175c-3.943,0-7.718,6.414-11.2,17.043l0.377,0.535c0,0-0.382,25.18,0,26.706
			c0.302,1.207-3.211-8.552-4.696-11.372c-0.573,2.473-1.134,5.05-1.685,7.72c-1.099,7.631-2.644,18.223-2.395,21.965
			c0.382,5.723,2.289,19.839,2.289,19.839s-6.104-9.538-4.96-5.723c1.145,3.815,0,37.388,0,37.388s-2.279-10.253-3.89-14.011
			c-0.526,4.736-1.019,9.495-1.477,14.241c0.369,13.129,1.297,30.426,1.551,33.724c0.381,4.96,2.289,12.59,2.289,12.59
			s-6.104-16.405-5.723-13.734c0.382,2.671-1.145,35.862,0.382,41.966c1.526,6.104,1.526,6.104,1.526,6.104l-4.04-3.306
			c0.743,55.489,14.628,49.851,31.65,49.851c17.011,0,30.888,5.632,31.648-49.738L377.608,321.1z"/>
		<path style="opacity:0.22;fill:#FFFFFF;" d="M377.608,321.1c0,0,0,0,1.526-6.104c1.526-6.104,0-39.296,0.382-41.966
			c0.382-2.671-5.723,13.734-5.723,13.734s1.908-7.63,2.289-12.59c0.247-3.207,1.131-19.65,1.519-32.626
			c-0.479-5.025-0.998-10.066-1.553-15.083c-1.602,3.951-3.781,13.755-3.781,13.755s-1.145-33.573,0-37.388
			c1.145-3.815-4.96,5.723-4.96,5.723s1.908-14.116,2.289-19.839c0.225-3.375-1.01-12.323-2.061-19.645
			c-0.686-3.435-1.391-6.728-2.113-9.856c-1.534,3.037-4.896,12.37-4.601,11.189c0.381-1.526,0-26.706,0-26.706l0.284-0.402
			c-3.494-10.708-7.284-17.175-11.244-17.175c-3.943,0-7.718,6.414-11.2,17.043l0.377,0.535c0,0-0.382,25.18,0,26.706
			c0.302,1.207-3.211-8.552-4.696-11.372c-0.573,2.473-1.134,5.05-1.685,7.72c-1.099,7.631-2.644,18.223-2.395,21.965
			c0.382,5.723,2.289,19.839,2.289,19.839s-6.104-9.538-4.96-5.723c1.145,3.815,0,37.388,0,37.388s-2.279-10.253-3.89-14.011
			c-0.526,4.736-1.019,9.495-1.477,14.241c0.369,13.129,1.297,30.426,1.551,33.724c0.381,4.96,2.289,12.59,2.289,12.59
			s-6.104-16.405-5.723-13.734c0.382,2.671-1.145,35.862,0.382,41.966c1.526,6.104,1.526,6.104,1.526,6.104l-4.04-3.306
			c0.743,55.489,14.628,49.851,31.65,49.851c17.011,0,30.888,5.632,31.648-49.738L377.608,321.1z"/>
		<polygon style="fill:#949494;" points="369.178,299.354 350.572,325.986 349.74,272.955 368.796,251.284 349.655,267.48 
			348.903,219.564 346.921,292.187 331.408,271.504 346.672,301.304 342.685,447.349 352.475,447.349 350.765,338.304 		"/>
	</g>
	<g>
		<path style="fill:#92E3A9;" d="M301.875,330.122c0,0,0,0,1.417-5.668c1.417-5.668,0-36.488,0.354-38.967
			c0.354-2.48-5.314,12.753-5.314,12.753s1.771-7.085,2.125-11.69c0.229-2.978,1.05-18.246,1.411-30.295
			c-0.445-4.666-0.927-9.347-1.443-14.005c-1.487,3.669-3.511,12.772-3.511,12.772s-1.063-31.174,0-34.716
			c1.063-3.542-4.605,5.314-4.605,5.314s1.771-13.107,2.126-18.421c0.209-3.134-0.938-11.443-1.913-18.241
			c-0.637-3.19-1.292-6.247-1.962-9.152c-1.424,2.82-4.546,11.486-4.272,10.389c0.354-1.417,0-24.797,0-24.797l0.264-0.374
			c-3.245-9.943-6.764-15.948-10.44-15.948c-3.661,0-7.166,5.956-10.4,15.825l0.35,0.496c0,0-0.354,23.38,0,24.797
			c0.28,1.12-2.982-7.941-4.36-10.56c-0.532,2.296-1.053,4.689-1.564,7.168c-1.021,7.086-2.455,16.921-2.223,20.396
			c0.354,5.314,2.126,18.421,2.126,18.421s-5.668-8.856-4.605-5.314c1.063,3.542,0,34.716,0,34.716s-2.117-9.52-3.612-13.01
			c-0.488,4.398-0.946,8.816-1.371,13.224c0.343,12.191,1.205,28.252,1.44,31.315c0.354,4.605,2.125,11.69,2.125,11.69
			s-5.668-15.233-5.314-12.753c0.354,2.48-1.063,33.299,0.354,38.967c1.417,5.668,1.417,5.668,1.417,5.668l-3.752-3.07
			c0.69,51.524,13.582,46.289,29.388,46.289c15.795,0,28.681,5.229,29.387-46.184L301.875,330.122z"/>
		<path style="opacity:0.22;fill:#FFFFFF;" d="M301.875,330.122c0,0,0,0,1.417-5.668c1.417-5.668,0-36.488,0.354-38.967
			c0.354-2.48-5.314,12.753-5.314,12.753s1.771-7.085,2.125-11.69c0.229-2.978,1.05-18.246,1.411-30.295
			c-0.445-4.666-0.927-9.347-1.443-14.005c-1.487,3.669-3.511,12.772-3.511,12.772s-1.063-31.174,0-34.716
			c1.063-3.542-4.605,5.314-4.605,5.314s1.771-13.107,2.126-18.421c0.209-3.134-0.938-11.443-1.913-18.241
			c-0.637-3.19-1.292-6.247-1.962-9.152c-1.424,2.82-4.546,11.486-4.272,10.389c0.354-1.417,0-24.797,0-24.797l0.264-0.374
			c-3.245-9.943-6.764-15.948-10.44-15.948c-3.661,0-7.166,5.956-10.4,15.825l0.35,0.496c0,0-0.354,23.38,0,24.797
			c0.28,1.12-2.982-7.941-4.36-10.56c-0.532,2.296-1.053,4.689-1.564,7.168c-1.021,7.086-2.455,16.921-2.223,20.396
			c0.354,5.314,2.126,18.421,2.126,18.421s-5.668-8.856-4.605-5.314c1.063,3.542,0,34.716,0,34.716s-2.117-9.52-3.612-13.01
			c-0.488,4.398-0.946,8.816-1.371,13.224c0.343,12.191,1.205,28.252,1.44,31.315c0.354,4.605,2.125,11.69,2.125,11.69
			s-5.668-15.233-5.314-12.753c0.354,2.48-1.063,33.299,0.354,38.967c1.417,5.668,1.417,5.668,1.417,5.668l-3.752-3.07
			c0.69,51.524,13.582,46.289,29.388,46.289c15.795,0,28.681,5.229,29.387-46.184L301.875,330.122z"/>
		<polygon style="fill:#949494;" points="294.047,309.93 276.771,334.659 275.999,285.417 293.693,265.294 275.919,280.334 
			275.222,235.841 273.381,303.275 258.977,284.07 273.15,311.741 269.448,447.349 278.538,447.349 276.951,346.096 		"/>
	</g>
	<g>
		<path style="fill:#92E3A9;" d="M82.163,330.122c0,0,0,0,1.417-5.668c1.417-5.668,0-36.488,0.354-38.967
			c0.354-2.48-5.314,12.753-5.314,12.753s1.771-7.085,2.126-11.69c0.229-2.978,1.05-18.246,1.411-30.295
			c-0.445-4.666-0.927-9.347-1.442-14.005c-1.488,3.669-3.511,12.772-3.511,12.772s-1.063-31.174,0-34.716
			c1.063-3.542-4.605,5.314-4.605,5.314s1.771-13.107,2.125-18.421c0.209-3.134-0.938-11.443-1.913-18.241
			c-0.637-3.19-1.292-6.247-1.963-9.152c-1.424,2.82-4.546,11.486-4.272,10.389c0.354-1.417,0-24.797,0-24.797l0.264-0.374
			c-3.245-9.943-6.764-15.948-10.441-15.948c-3.661,0-7.166,5.956-10.4,15.825l0.35,0.496c0,0-0.354,23.38,0,24.797
			c0.28,1.12-2.982-7.941-4.36-10.56c-0.532,2.296-1.054,4.689-1.564,7.168c-1.021,7.086-2.455,16.921-2.223,20.396
			c0.354,5.314,2.125,18.421,2.125,18.421s-5.668-8.856-4.605-5.314c1.063,3.542,0,34.716,0,34.716s-2.117-9.52-3.612-13.01
			c-0.488,4.398-0.946,8.816-1.371,13.224c0.343,12.191,1.205,28.252,1.44,31.315c0.354,4.605,2.125,11.69,2.125,11.69
			s-5.668-15.233-5.314-12.753c0.354,2.48-1.063,33.299,0.354,38.967s1.417,5.668,1.417,5.668l-3.752-3.07
			c0.69,51.524,13.582,46.289,29.388,46.289c15.795,0,28.681,5.229,29.387-46.184L82.163,330.122z"/>
		<path style="opacity:0.22;fill:#FFFFFF;" d="M82.163,330.122c0,0,0,0,1.417-5.668c1.417-5.668,0-36.488,0.354-38.967
			c0.354-2.48-5.314,12.753-5.314,12.753s1.771-7.085,2.126-11.69c0.229-2.978,1.05-18.246,1.411-30.295
			c-0.445-4.666-0.927-9.347-1.442-14.005c-1.488,3.669-3.511,12.772-3.511,12.772s-1.063-31.174,0-34.716
			c1.063-3.542-4.605,5.314-4.605,5.314s1.771-13.107,2.125-18.421c0.209-3.134-0.938-11.443-1.913-18.241
			c-0.637-3.19-1.292-6.247-1.963-9.152c-1.424,2.82-4.546,11.486-4.272,10.389c0.354-1.417,0-24.797,0-24.797l0.264-0.374
			c-3.245-9.943-6.764-15.948-10.441-15.948c-3.661,0-7.166,5.956-10.4,15.825l0.35,0.496c0,0-0.354,23.38,0,24.797
			c0.28,1.12-2.982-7.941-4.36-10.56c-0.532,2.296-1.054,4.689-1.564,7.168c-1.021,7.086-2.455,16.921-2.223,20.396
			c0.354,5.314,2.125,18.421,2.125,18.421s-5.668-8.856-4.605-5.314c1.063,3.542,0,34.716,0,34.716s-2.117-9.52-3.612-13.01
			c-0.488,4.398-0.946,8.816-1.371,13.224c0.343,12.191,1.205,28.252,1.44,31.315c0.354,4.605,2.125,11.69,2.125,11.69
			s-5.668-15.233-5.314-12.753c0.354,2.48-1.063,33.299,0.354,38.967s1.417,5.668,1.417,5.668l-3.752-3.07
			c0.69,51.524,13.582,46.289,29.388,46.289c15.795,0,28.681,5.229,29.387-46.184L82.163,330.122z"/>
		<polygon style="fill:#949494;" points="74.336,309.93 57.06,334.659 56.288,285.417 73.982,265.294 56.208,280.334 55.51,235.841 
			53.669,303.275 39.265,284.07 53.438,311.741 49.736,447.349 58.826,447.349 57.239,346.096 		"/>
	</g>
	<g>
		<path style="fill:#92E3A9;" d="M158.491,297.901c0,0,0,0,1.806-7.226c1.807-7.226,0-46.516,0.452-49.678
			c0.452-3.161-6.774,16.258-6.774,16.258s2.258-9.032,2.71-14.903c0.292-3.796,1.339-23.261,1.799-38.622
			c-0.567-5.948-1.181-11.916-1.839-17.855c-1.896,4.677-4.476,16.283-4.476,16.283s-1.355-39.742,0-44.258
			c1.355-4.516-5.871,6.774-5.871,6.774s2.258-16.71,2.71-23.484c0.266-3.995-1.195-14.588-2.439-23.255
			c-0.812-4.066-1.647-7.964-2.502-11.667c-1.816,3.595-5.796,14.644-5.446,13.245c0.452-1.806,0-31.613,0-31.613l0.336-0.476
			c-4.136-12.676-8.623-20.331-13.31-20.331c-4.668,0-9.136,7.593-13.258,20.174l0.447,0.633c0,0-0.452,29.807,0,31.613
			c0.357,1.428-3.801-10.123-5.558-13.462c-0.678,2.927-1.343,5.978-1.994,9.138c-1.301,9.034-3.13,21.572-2.835,26.002
			c0.452,6.774,2.71,23.484,2.71,23.484s-7.226-11.29-5.871-6.774c1.355,4.516,0,44.258,0,44.258s-2.698-12.137-4.604-16.586
			c-0.622,5.606-1.206,11.24-1.748,16.858c0.437,15.541,1.536,36.018,1.836,39.921c0.452,5.871,2.71,14.903,2.71,14.903
			s-7.226-19.42-6.774-16.258s-1.355,42.452,0.452,49.678c1.806,7.226,1.806,7.226,1.806,7.226l-4.783-3.913
			c0.879,65.685,17.315,59.011,37.465,59.011c20.136,0,36.564,6.666,37.464-58.877L158.491,297.901z"/>
		<path style="opacity:0.22;fill:#FFFFFF;" d="M158.491,297.901c0,0,0,0,1.806-7.226c1.807-7.226,0-46.516,0.452-49.678
			c0.452-3.161-6.774,16.258-6.774,16.258s2.258-9.032,2.71-14.903c0.292-3.796,1.339-23.261,1.799-38.622
			c-0.567-5.948-1.181-11.916-1.839-17.855c-1.896,4.677-4.476,16.283-4.476,16.283s-1.355-39.742,0-44.258
			c1.355-4.516-5.871,6.774-5.871,6.774s2.258-16.71,2.71-23.484c0.266-3.995-1.195-14.588-2.439-23.255
			c-0.812-4.066-1.647-7.964-2.502-11.667c-1.816,3.595-5.796,14.644-5.446,13.245c0.452-1.806,0-31.613,0-31.613l0.336-0.476
			c-4.136-12.676-8.623-20.331-13.31-20.331c-4.668,0-9.136,7.593-13.258,20.174l0.447,0.633c0,0-0.452,29.807,0,31.613
			c0.357,1.428-3.801-10.123-5.558-13.462c-0.678,2.927-1.343,5.978-1.994,9.138c-1.301,9.034-3.13,21.572-2.835,26.002
			c0.452,6.774,2.71,23.484,2.71,23.484s-7.226-11.29-5.871-6.774c1.355,4.516,0,44.258,0,44.258s-2.698-12.137-4.604-16.586
			c-0.622,5.606-1.206,11.24-1.748,16.858c0.437,15.541,1.536,36.018,1.836,39.921c0.452,5.871,2.71,14.903,2.71,14.903
			s-7.226-19.42-6.774-16.258s-1.355,42.452,0.452,49.678c1.806,7.226,1.806,7.226,1.806,7.226l-4.783-3.913
			c0.879,65.685,17.315,59.011,37.465,59.011c20.136,0,36.564,6.666,37.464-58.877L158.491,297.901z"/>
		<polygon style="fill:#949494;" points="148.512,272.159 126.487,303.685 125.503,240.909 148.06,215.256 125.401,234.429 
			124.512,177.708 122.165,263.676 103.802,239.191 121.87,274.468 117.151,447.349 128.74,447.349 126.716,318.267 		"/>
	</g>
</g>
<g id="Windmill">
	<g>
		<polygon style="fill:#263238;" points="386.011,62.506 394.585,91.944 400.016,89.657 396.3,56.667 		"/>
		<polygon style="fill:#263238;" points="369.996,72.284 388.122,97.015 392.443,93.008 377.668,63.278 		"/>
		<polygon style="fill:#263238;" points="358.291,86.95 383.782,103.99 386.472,98.748 362.42,75.864 		"/>
		<polygon style="fill:#263238;" points="352.309,104.735 382.09,112.029 382.825,106.183 352.397,92.905 		"/>
		<polygon style="fill:#263238;" points="352.77,123.494 383.249,120.162 381.941,114.417 348.806,112.348 		"/>
		<polygon style="fill:#263238;" points="359.618,140.964 387.121,127.408 383.926,122.457 352.082,131.845 		"/>
		<polygon style="fill:#263238;" points="372.029,155.038 393.237,132.893 388.541,129.333 361.828,149.046 		"/>
		<polygon style="fill:#263238;" points="388.505,164.018 400.86,135.956 395.23,134.217 376.87,161.877 		"/>
		<polygon style="fill:#263238;" points="407.059,166.821 409.07,136.226 403.186,136.517 395.394,168.789 		"/>
		<polygon style="fill:#263238;" points="425.453,163.11 416.879,133.672 411.448,135.958 415.164,168.949 		"/>
		<polygon style="fill:#263238;" points="441.468,153.332 423.342,128.601 419.021,132.607 433.796,162.337 		"/>
		<polygon style="fill:#263238;" points="453.173,138.665 427.682,121.626 424.992,126.868 449.044,149.752 		"/>
		<polygon style="fill:#263238;" points="459.155,120.88 429.374,113.587 428.639,119.433 459.067,132.71 		"/>
		<polygon style="fill:#263238;" points="458.695,102.122 428.215,105.454 429.523,111.199 462.658,113.268 		"/>
		<polygon style="fill:#263238;" points="451.846,84.652 424.343,98.208 427.538,103.158 459.382,93.771 		"/>
		<polygon style="fill:#263238;" points="439.435,70.578 418.227,92.723 422.923,96.282 449.636,76.569 		"/>
		<polygon style="fill:#263238;" points="422.959,61.598 410.604,89.66 416.234,91.399 434.594,63.739 		"/>
		<polygon style="fill:#263238;" points="404.405,58.794 402.394,89.39 408.279,89.099 416.07,56.827 		"/>
		
			<ellipse transform="matrix(0.9196 -0.3929 0.3929 0.9196 -11.694 168.4819)" style="fill:none;stroke:#263238;stroke-miterlimit:10;" cx="405.732" cy="112.808" rx="42.911" ry="42.911"/>
		<circle style="fill:none;stroke:#263238;stroke-miterlimit:10;" cx="405.732" cy="112.808" r="23.722"/>
		<line style="fill:none;stroke:#263238;stroke-miterlimit:10;" x1="405.467" y1="119.504" x2="362.007" y2="448.46"/>
		<line style="fill:none;stroke:#263238;stroke-miterlimit:10;" x1="405.467" y1="119.504" x2="448.927" y2="448.46"/>
		
			<line style="fill:none;stroke:#263238;stroke-width:3;stroke-miterlimit:10;" x1="405.467" y1="119.504" x2="405.467" y2="448.513"/>
		<polygon style="fill:#263238;stroke:#263238;stroke-miterlimit:10;" points="398.398,122.717 412.535,122.717 412.535,115.006 
			401.611,95.728 395.828,95.728 398.398,114.364 		"/>
		<polygon style="fill:#C2C2C2;stroke:#263238;stroke-miterlimit:10;" points="336.709,115.649 348.276,127.858 340.565,145.208 
			292.37,158.703 288.515,118.862 		"/>
		<line style="fill:#FFFFFF;stroke:#263238;stroke-miterlimit:10;" x1="405.467" y1="129.143" x2="327.07" y2="129.143"/>
		
			<line style="fill:#FFFFFF;stroke:#263238;stroke-width:2;stroke-miterlimit:10;" x1="384.904" y1="186.977" x2="425.387" y2="186.977"/>
		<line style="fill:#FFFFFF;stroke:#263238;stroke-miterlimit:10;" x1="393.258" y1="212.681" x2="418.354" y2="212.681"/>
		<line style="fill:#FFFFFF;stroke:#263238;stroke-miterlimit:10;" x1="389.997" y1="241.047" x2="421.615" y2="241.047"/>
		<line style="fill:#FFFFFF;stroke:#263238;stroke-miterlimit:10;" x1="384.454" y1="281.803" x2="427.157" y2="281.803"/>
		<line style="fill:#FFFFFF;stroke:#263238;stroke-miterlimit:10;" x1="377.281" y1="333.971" x2="434.33" y2="333.971"/>
		<line style="fill:#FFFFFF;stroke:#263238;stroke-miterlimit:10;" x1="368.142" y1="395.921" x2="441.83" y2="395.921"/>
	</g>
</g>
<g id="Farm_Tractor">
	<g>
		<path style="fill:#263238;stroke:#263238;stroke-miterlimit:10;" d="M27.898,373.078l-1.208,4.076l-2.644-1.192
			c0-2.084-1.689-3.773-3.773-3.773c-2.084,0-3.773,1.689-3.773,3.773c0,2.084,1.689,3.773,3.773,3.773
			c0.935,0,1.781-0.353,2.44-0.917l2.166,1.203l-1.057,4.83l8,3.019l3.472-12.227L27.898,373.078z"/>
		<path style="fill:#263238;stroke:#263238;stroke-miterlimit:10;" d="M51.104,337.73l25.205,3.938v61.963h213.719l1.575-8.139
			H303.7c3.674,0,7.184-1.521,9.697-4.201l0,0v-2.888l-7.877-2.888v-3.413h8.139v-1.346c0-2.044-1.236-3.886-3.128-4.66l-14.2-5.809
			l-15.491-4.982h-99.246v12.596h-27.568c0,0,2.363-6.301-9.715-23.367c-12.077-17.066-18.379-22.58-24.68-26.518
			c-6.301-3.938-0.788-4.988-16.541-7.089c-15.753-2.1-28.356-1.05-28.356-1.05l-3.938,7.352h-11.29L51.104,337.73z"/>
		<g>
			<path style="fill:#92E3A9;stroke:#263238;stroke-miterlimit:10;" d="M180.337,317.664c0,0,15.496-1.87,25.115-0.801
				c9.618,1.069,23.244,10.687,23.244,10.687s36.069,4.275,47.29,9.885c11.221,5.611,11.488,14.962,11.221,20.038
				c-0.267,5.076-6.145,21.909-6.145,21.909s-48.893-12.557-98.321-12.29l-1.603-43.015L180.337,317.664z"/>
			<path style="fill:none;stroke:#263238;stroke-miterlimit:10;" d="M219.683,327.15c1.864,0.169,3.706,0.367,5.498,0.598"/>
			<path style="fill:none;stroke:#263238;stroke-miterlimit:10;" d="M184.846,326.417c0,0,16.256-0.683,31.983,0.497"/>
			<g>
				<path style="fill:none;stroke:#263238;stroke-miterlimit:10;" d="M277.614,344.005c1.811,0.287,3.437,0.599,4.841,0.94"/>
				<path style="fill:none;stroke:#263238;stroke-miterlimit:10;" d="M192.355,340.971c0,0,54.426-0.835,81.281,2.479"/>
			</g>
		</g>
		<path style="fill:#263238;" d="M123.636,306.685l-7.834-1.735v8.865l7.834-1.735C126.523,311.44,126.523,307.324,123.636,306.685z
			"/>
		<g>
			<path style="fill:#263238;" d="M197.434,340.971h-5.079v-78.02c0.974-10.226,10.26-9.94,10.57-10.056l-1.193,4.755l-0.892-2.378
				l0.905,2.372c-0.176,0.069-4.311,1.716-4.311,5.306V340.971z"/>
		</g>
		<path style="fill:#263238;stroke:#263238;stroke-miterlimit:10;" d="M174.192,316.328l-24.847,24.046l9.618,12.824
			c0,0,3.741,0.534,9.618,3.473c5.878,2.939,7.214,10.42,7.214,10.42h6.947v-48.626L174.192,316.328z"/>
		
			<ellipse transform="matrix(0.9874 -0.1582 0.1582 0.9874 -61.2072 45.7422)" style="fill:#263238;stroke:#263238;stroke-miterlimit:10;" cx="256.794" cy="407.435" rx="41.078" ry="41.078"/>
		
			<ellipse transform="matrix(0.4336 -0.9011 0.9011 0.4336 -221.6924 462.1844)" style="fill:#FFFFFF;stroke:#263238;stroke-miterlimit:10;" cx="256.794" cy="407.435" rx="26.847" ry="26.847"/>
		
			<ellipse transform="matrix(0.3883 -0.9215 0.9215 0.3883 -218.388 485.8495)" style="fill:#263238;stroke:#263238;stroke-miterlimit:10;" cx="256.794" cy="407.435" rx="23.993" ry="23.993"/>
		<path style="fill:#FFFFFF;stroke:#263238;stroke-miterlimit:10;" d="M276.503,407.435c0-3.899,2.116-8.402,0.294-11.551
			c-1.879-3.248-6.901-3.643-10.149-5.522c-3.148-1.822-5.956-6.022-9.855-6.022c-3.899,0-6.706,4.201-9.855,6.022
			c-3.248,1.879-8.269,2.274-10.148,5.522c-1.822,3.148,0.294,7.651,0.294,11.55s-2.116,8.402-0.294,11.551
			c1.879,3.248,6.901,3.643,10.149,5.522c3.148,1.822,5.956,6.022,9.855,6.022c3.899,0,6.707-4.201,9.855-6.022
			c3.248-1.879,8.269-2.274,10.148-5.522C278.619,415.837,276.503,411.334,276.503,407.435z"/>
		
			<ellipse transform="matrix(0.9872 -0.1597 0.1597 0.9872 -61.7874 46.2531)" style="fill:#263238;stroke:#263238;stroke-miterlimit:10;" cx="256.794" cy="407.435" rx="8.817" ry="8.817"/>
		<g>
			<path style="fill:#6B6B6B;stroke:#263238;stroke-miterlimit:10;" d="M254.383,366.685c0,0-2.16,1.728-2.484,3.456
				c-0.324,1.728,0.972,1.836,1.512,1.728s2.592,0.216,3.996-0.54c1.404-0.756,3.995-4.427,3.995-4.427
				S256.651,365.929,254.383,366.685z"/>
			<path style="fill:#6B6B6B;stroke:#263238;stroke-miterlimit:10;" d="M243,369.015c0,0-1.586,2.266-1.41,4.015
				c0.176,1.749,1.45,1.487,1.937,1.232c0.488-0.256,2.548-0.523,3.681-1.644c1.134-1.121,2.586-5.374,2.586-5.374
				S244.963,367.651,243,369.015z"/>
			<path style="fill:#6B6B6B;stroke:#263238;stroke-miterlimit:10;" d="M232.735,374.457c0,0-0.883,2.621-0.221,4.25
				c0.662,1.629,1.81,1.019,2.206,0.636c0.396-0.383,2.297-1.22,3.069-2.614c0.772-1.395,0.968-5.885,0.968-5.885
				S234.234,372.595,232.735,374.457z"/>
			<path style="fill:#6B6B6B;stroke:#263238;stroke-miterlimit:10;" d="M224.418,382.571c0,0-0.109,2.764,0.985,4.14
				c1.094,1.376,2.024,0.468,2.296-0.011c0.272-0.479,1.86-1.817,2.208-3.373c0.348-1.556-0.73-5.919-0.73-5.919
				S225.332,380.362,224.418,382.571z"/>
			<path style="fill:#6B6B6B;stroke:#263238;stroke-miterlimit:10;" d="M218.725,392.7c0,0,0.674,2.682,2.111,3.695
				c1.437,1.012,2.074-0.121,2.2-0.657c0.126-0.536,1.273-2.268,1.169-3.859c-0.104-1.591-2.368-5.474-2.368-5.474
				S218.979,390.323,218.725,392.7z"/>
			<path style="fill:#6B6B6B;stroke:#263238;stroke-miterlimit:10;" d="M216.115,404.022c0,0,1.403,2.384,3.067,2.95
				c1.664,0.566,1.955-0.701,1.925-1.251c-0.03-0.55,0.583-2.534,0.034-4.032c-0.548-1.497-3.814-4.585-3.814-4.585
				S215.69,401.67,216.115,404.022z"/>
			<path style="fill:#6B6B6B;stroke:#263238;stroke-miterlimit:10;" d="M216.801,415.621c0,0,2.018,1.892,3.774,1.967
				c1.756,0.075,1.679-1.223,1.495-1.742c-0.184-0.519-0.155-2.596-1.103-3.878c-0.948-1.282-4.951-3.325-4.951-3.325
				S215.731,413.484,216.801,415.621z"/>
			<path style="fill:#6B6B6B;stroke:#263238;stroke-miterlimit:10;" d="M220.728,426.556c0,0,2.469,1.247,4.175,0.824
				c1.706-0.423,1.266-1.647,0.944-2.093c-0.322-0.446-0.88-2.447-2.151-3.41c-1.271-0.963-5.687-1.795-5.687-1.795
				S219.098,424.807,220.728,426.556z"/>
			<path style="fill:#6B6B6B;stroke:#263238;stroke-miterlimit:10;" d="M227.576,435.943c0,0,2.72,0.501,4.238-0.386
				c1.518-0.887,0.751-1.937,0.316-2.274c-0.435-0.337-1.534-2.1-3.025-2.666c-1.49-0.566-5.962-0.12-5.962-0.12
				S225.519,434.724,227.576,435.943z"/>
			<path style="fill:#6B6B6B;stroke:#263238;stroke-miterlimit:10;" d="M236.791,443.02c0,0,2.751-0.286,3.958-1.564
				c1.207-1.278,0.175-2.07-0.338-2.271c-0.513-0.201-2.063-1.583-3.653-1.706c-1.59-0.123-5.755,1.564-5.755,1.564
				S234.474,442.43,236.791,443.02z"/>
			<path style="fill:#6B6B6B;stroke:#263238;stroke-miterlimit:10;" d="M247.626,447.214c0,0,2.559-1.049,3.357-2.616
				c0.798-1.567-0.415-2.035-0.964-2.084c-0.549-0.048-2.426-0.937-3.986-0.608c-1.56,0.33-5.081,3.122-5.081,3.122
				S245.237,447.3,247.626,447.214z"/>
			<path style="fill:#6B6B6B;stroke:#263238;stroke-miterlimit:10;" d="M259.204,448.185c0,0,2.16-1.728,2.484-3.456
				c0.324-1.728-0.972-1.836-1.512-1.728c-0.54,0.108-2.592-0.216-3.996,0.54c-1.404,0.756-3.995,4.427-3.995,4.427
				S256.937,448.941,259.204,448.185z"/>
			<path style="fill:#6B6B6B;stroke:#263238;stroke-miterlimit:10;" d="M270.587,445.856c0,0,1.585-2.266,1.41-4.015
				c-0.176-1.749-1.45-1.488-1.937-1.232c-0.488,0.256-2.548,0.523-3.682,1.644s-2.586,5.374-2.586,5.374
				S268.625,447.22,270.587,445.856z"/>
			<path style="fill:#6B6B6B;stroke:#263238;stroke-miterlimit:10;" d="M280.853,440.413c0,0,0.883-2.621,0.221-4.25
				s-1.81-1.019-2.206-0.636c-0.396,0.383-2.297,1.219-3.069,2.614c-0.772,1.395-0.968,5.885-0.968,5.885
				S279.354,442.275,280.853,440.413z"/>
			<path style="fill:#6B6B6B;stroke:#263238;stroke-miterlimit:10;" d="M289.169,432.299c0,0,0.109-2.764-0.985-4.14
				c-1.094-1.376-2.024-0.468-2.296,0.011c-0.272,0.479-1.86,1.817-2.208,3.373c-0.348,1.556,0.73,5.919,0.73,5.919
				S288.256,434.508,289.169,432.299z"/>
			<path style="fill:#6B6B6B;stroke:#263238;stroke-miterlimit:10;" d="M294.863,422.171c0,0-0.674-2.682-2.112-3.695
				c-1.437-1.012-2.074,0.121-2.2,0.657c-0.126,0.536-1.273,2.268-1.169,3.859c0.104,1.591,2.368,5.474,2.368,5.474
				S294.608,424.548,294.863,422.171z"/>
			<path style="fill:#6B6B6B;stroke:#263238;stroke-miterlimit:10;" d="M297.472,410.849c0,0-1.403-2.384-3.067-2.95
				c-1.664-0.566-1.955,0.701-1.925,1.251c0.03,0.55-0.583,2.535-0.034,4.032c0.548,1.497,3.814,4.585,3.814,4.585
				S297.898,413.201,297.472,410.849z"/>
			<path style="fill:#6B6B6B;stroke:#263238;stroke-miterlimit:10;" d="M296.786,399.25c0,0-2.018-1.892-3.774-1.967
				c-1.756-0.075-1.679,1.223-1.495,1.742c0.184,0.519,0.155,2.596,1.103,3.878c0.948,1.282,4.951,3.325,4.951,3.325
				S297.857,401.387,296.786,399.25z"/>
			<path style="fill:#6B6B6B;stroke:#263238;stroke-miterlimit:10;" d="M292.86,388.314c0,0-2.469-1.247-4.175-0.824
				c-1.706,0.423-1.266,1.647-0.944,2.093c0.322,0.446,0.88,2.447,2.151,3.41c1.271,0.963,5.687,1.795,5.687,1.795
				S294.49,390.063,292.86,388.314z"/>
			<path style="fill:#6B6B6B;stroke:#263238;stroke-miterlimit:10;" d="M286.012,378.928c0,0-2.72-0.501-4.238,0.386
				c-1.518,0.887-0.751,1.937-0.316,2.274c0.435,0.337,1.534,2.1,3.025,2.666c1.491,0.566,5.962,0.12,5.962,0.12
				S288.069,380.147,286.012,378.928z"/>
			<path style="fill:#6B6B6B;stroke:#263238;stroke-miterlimit:10;" d="M276.797,371.851c0,0-2.751,0.286-3.958,1.564
				c-1.207,1.278-0.175,2.07,0.338,2.271c0.513,0.201,2.063,1.583,3.653,1.706c1.59,0.123,5.755-1.564,5.755-1.564
				S279.114,372.441,276.797,371.851z"/>
			<path style="fill:#6B6B6B;stroke:#263238;stroke-miterlimit:10;" d="M265.962,367.657c0,0-2.559,1.049-3.357,2.616
				c-0.798,1.567,0.415,2.035,0.964,2.084c0.548,0.048,2.426,0.937,3.986,0.608c1.56-0.33,5.081-3.122,5.081-3.122
				S268.35,367.57,265.962,367.657z"/>
		</g>
		
			<ellipse transform="matrix(0.9741 -0.2263 0.2263 0.9741 -86.4698 29.6225)" style="fill:#263238;stroke:#263238;stroke-miterlimit:10;" cx="85.968" cy="391.962" rx="56.551" ry="56.551"/>
		
			<ellipse transform="matrix(0.9873 -0.1587 0.1587 0.9873 -61.1011 18.6051)" style="fill:#FFFFFF;stroke:#263238;stroke-miterlimit:10;" cx="85.968" cy="391.962" rx="36.959" ry="36.959"/>
		
			<ellipse transform="matrix(0.9739 -0.2269 0.2269 0.9739 -86.6794 29.7224)" style="fill:#263238;stroke:#263238;stroke-miterlimit:10;" cx="85.968" cy="391.962" rx="33.03" ry="33.03"/>
		<path style="fill:#FFFFFF;stroke:#263238;stroke-miterlimit:10;" d="M85.017,419.079c5.364,0.188,11.458,3.316,15.877,0.962
			c4.559-2.429,5.345-9.318,8.088-13.696c2.658-4.243,8.573-7.903,8.761-13.267c0.188-5.364-5.456-9.43-7.81-13.849
			c-2.429-4.559-2.73-11.487-7.108-14.229c-4.243-2.658-10.541,0.035-15.905-0.153c-5.364-0.188-11.458-3.316-15.877-0.962
			c-4.559,2.429-5.345,9.318-8.088,13.696c-2.658,4.243-8.573,7.903-8.761,13.267c-0.188,5.364,5.456,9.43,7.81,13.849
			c2.429,4.559,2.73,11.487,7.108,14.229C73.355,421.584,79.653,418.891,85.017,419.079z"/>
		
			<ellipse transform="matrix(0.9916 -0.1294 0.1294 0.9916 -49.9887 14.4167)" style="fill:#263238;stroke:#263238;stroke-miterlimit:10;" cx="85.968" cy="391.962" rx="12.138" ry="12.138"/>
		<g>
			<path style="fill:#6B6B6B;stroke:#263238;stroke-miterlimit:10;" d="M82.65,335.863c0,0-2.973,2.379-3.419,4.757
				s1.338,2.527,2.081,2.379c0.743-0.149,3.568,0.297,5.5-0.743c1.933-1.041,5.5-6.095,5.5-6.095S85.772,334.822,82.65,335.863z"/>
			<path style="fill:#6B6B6B;stroke:#263238;stroke-miterlimit:10;" d="M66.979,339.07c0,0-2.183,3.12-1.941,5.528
				c0.242,2.408,1.996,2.048,2.667,1.696c0.671-0.352,3.507-0.72,5.068-2.263c1.561-1.543,3.56-7.398,3.56-7.398
				S69.681,337.192,66.979,339.07z"/>
			<path style="fill:#6B6B6B;stroke:#263238;stroke-miterlimit:10;" d="M52.847,346.563c0,0-1.215,3.608-0.305,5.85
				c0.911,2.242,2.492,1.403,3.037,0.876c0.545-0.527,3.162-1.679,4.225-3.599c1.063-1.92,1.332-8.101,1.332-8.101
				S54.91,343.999,52.847,346.563z"/>
			<path style="fill:#6B6B6B;stroke:#263238;stroke-miterlimit:10;" d="M41.398,357.733c0,0-0.149,3.805,1.356,5.699
				c1.506,1.895,2.786,0.644,3.161-0.015c0.374-0.659,2.561-2.502,3.04-4.644c0.479-2.142-1.004-8.148-1.004-8.148
				S42.656,354.692,41.398,357.733z"/>
			<path style="fill:#6B6B6B;stroke:#263238;stroke-miterlimit:10;" d="M33.56,371.676c0,0,0.929,3.693,2.907,5.087
				c1.978,1.394,2.855-0.167,3.028-0.905c0.174-0.738,1.753-3.122,1.609-5.312c-0.144-2.19-3.259-7.535-3.259-7.535
				S33.91,368.404,33.56,371.676z"/>
			<path style="fill:#6B6B6B;stroke:#263238;stroke-miterlimit:10;" d="M29.967,387.263c0,0,1.931,3.281,4.222,4.061
				c2.291,0.78,2.692-0.965,2.651-1.722c-0.041-0.757,0.802-3.489,0.047-5.55c-0.755-2.061-5.25-6.312-5.25-6.312
				S29.382,384.025,29.967,387.263z"/>
			<path style="fill:#6B6B6B;stroke:#263238;stroke-miterlimit:10;" d="M30.912,403.231c0,0,2.778,2.604,5.195,2.707
				c2.418,0.103,2.311-1.684,2.058-2.399c-0.253-0.715-0.214-3.574-1.519-5.339c-1.305-1.765-6.816-4.577-6.816-4.577
				S29.438,400.289,30.912,403.231z"/>
			<path style="fill:#6B6B6B;stroke:#263238;stroke-miterlimit:10;" d="M36.317,418.286c0,0,3.399,1.716,5.748,1.134
				s1.743-2.267,1.299-2.881c-0.444-0.614-1.212-3.369-2.961-4.695c-1.75-1.326-7.829-2.471-7.829-2.471
				S34.073,415.878,36.317,418.286z"/>
			<path style="fill:#6B6B6B;stroke:#263238;stroke-miterlimit:10;" d="M45.744,431.208c0,0,3.745,0.689,5.834-0.531
				c2.09-1.221,1.034-2.666,0.435-3.13c-0.599-0.464-2.112-2.891-4.164-3.67c-2.052-0.779-8.208-0.165-8.208-0.165
				S42.913,429.53,45.744,431.208z"/>
			<path style="fill:#6B6B6B;stroke:#263238;stroke-miterlimit:10;" d="M58.43,440.951c0,0,3.787-0.394,5.448-2.153
				c1.661-1.76,0.241-2.849-0.465-3.126c-0.706-0.277-2.841-2.179-5.029-2.348s-7.923,2.154-7.923,2.154
				S55.241,440.138,58.43,440.951z"/>
			<path style="fill:#6B6B6B;stroke:#263238;stroke-miterlimit:10;" d="M73.347,446.725c0,0,3.523-1.445,4.621-3.601
				c1.098-2.157-0.572-2.802-1.327-2.869c-0.755-0.067-3.339-1.29-5.487-0.836c-2.147,0.454-6.995,4.298-6.995,4.298
				S70.059,446.844,73.347,446.725z"/>
			<path style="fill:#6B6B6B;stroke:#263238;stroke-miterlimit:10;" d="M89.287,448.062c0,0,2.973-2.379,3.419-4.757
				c0.446-2.379-1.338-2.527-2.081-2.379c-0.743,0.149-3.568-0.297-5.501,0.743c-1.933,1.041-5.5,6.095-5.5,6.095
				S86.165,449.103,89.287,448.062z"/>
			<path style="fill:#6B6B6B;stroke:#263238;stroke-miterlimit:10;" d="M104.957,444.855c0,0,2.183-3.12,1.94-5.528
				c-0.242-2.408-1.996-2.048-2.667-1.696c-0.671,0.352-3.507,0.72-5.068,2.263c-1.561,1.543-3.561,7.398-3.561,7.398
				S102.255,446.733,104.957,444.855z"/>
			<path style="fill:#6B6B6B;stroke:#263238;stroke-miterlimit:10;" d="M119.09,437.362c0,0,1.215-3.608,0.304-5.85
				c-0.911-2.242-2.492-1.403-3.037-0.876c-0.545,0.527-3.162,1.679-4.225,3.599c-1.063,1.92-1.332,8.101-1.332,8.101
				S117.026,439.926,119.09,437.362z"/>
			<path style="fill:#6B6B6B;stroke:#263238;stroke-miterlimit:10;" d="M130.539,426.192c0,0,0.149-3.805-1.356-5.699
				c-1.506-1.895-2.786-0.644-3.161,0.015c-0.374,0.659-2.561,2.502-3.04,4.644c-0.479,2.142,1.004,8.148,1.004,8.148
				S129.281,429.233,130.539,426.192z"/>
			<path style="fill:#6B6B6B;stroke:#263238;stroke-miterlimit:10;" d="M138.377,412.249c0,0-0.928-3.693-2.907-5.087
				c-1.978-1.394-2.855,0.167-3.028,0.905c-0.173,0.738-1.753,3.122-1.609,5.312c0.144,2.19,3.259,7.535,3.259,7.535
				S138.026,415.521,138.377,412.249z"/>
			<path style="fill:#6B6B6B;stroke:#263238;stroke-miterlimit:10;" d="M141.969,396.661c0,0-1.931-3.281-4.222-4.061
				c-2.291-0.78-2.692,0.965-2.651,1.722c0.041,0.757-0.802,3.489-0.047,5.55c0.755,2.061,5.25,6.312,5.25,6.312
				S142.555,399.9,141.969,396.661z"/>
			<path style="fill:#6B6B6B;stroke:#263238;stroke-miterlimit:10;" d="M141.025,380.694c0,0-2.777-2.604-5.195-2.707
				c-2.418-0.103-2.311,1.684-2.058,2.399c0.253,0.715,0.213,3.574,1.518,5.339c1.305,1.765,6.816,4.577,6.816,4.577
				S142.499,383.636,141.025,380.694z"/>
			<path style="fill:#6B6B6B;stroke:#263238;stroke-miterlimit:10;" d="M135.62,365.639c0,0-3.399-1.716-5.748-1.134
				c-2.349,0.582-1.743,2.267-1.299,2.881c0.444,0.614,1.212,3.369,2.961,4.695c1.749,1.326,7.829,2.471,7.829,2.471
				S137.863,368.047,135.62,365.639z"/>
			<path style="fill:#6B6B6B;stroke:#263238;stroke-miterlimit:10;" d="M126.192,352.717c0,0-3.745-0.689-5.834,0.531
				c-2.09,1.221-1.034,2.666-0.435,3.131c0.599,0.464,2.112,2.891,4.164,3.67c2.052,0.779,8.208,0.165,8.208,0.165
				S129.023,354.395,126.192,352.717z"/>
			<path style="fill:#6B6B6B;stroke:#263238;stroke-miterlimit:10;" d="M113.506,342.974c0,0-3.787,0.394-5.448,2.153
				c-1.661,1.76-0.241,2.849,0.465,3.126c0.706,0.277,2.841,2.179,5.029,2.348c2.188,0.169,7.922-2.154,7.922-2.154
				S116.695,343.787,113.506,342.974z"/>
			<path style="fill:#6B6B6B;stroke:#263238;stroke-miterlimit:10;" d="M98.589,337.2c0,0-3.523,1.445-4.621,3.601
				c-1.098,2.157,0.572,2.802,1.327,2.869c0.755,0.067,3.34,1.29,5.487,0.836s6.995-4.298,6.995-4.298S101.878,337.081,98.589,337.2
				z"/>
		</g>
		<path style="fill:#92E3A9;stroke:#263238;stroke-miterlimit:10;" d="M56.618,326.44l-12.603,14.44h7.352
			c0,0,8.664-9.715,12.078-10.765c3.413-1.05,37.02-2.888,49.623,3.151c12.603,6.039,19.166,14.441,24.943,24.943
			c5.776,10.502,9.452,21.529,9.452,21.529l3.151-12.077c0,0-14.703-27.831-28.093-35.97c-13.39-8.139-21.792-7.089-33.082-8.139
			c-11.29-1.05-30.456,0-30.456,0L56.618,326.44z"/>
		<rect x="151.925" y="382.365" style="fill:#6B6B6B;stroke:#263238;stroke-miterlimit:10;" width="27.306" height="17.066"/>
		<rect x="157.701" y="400.451" style="fill:#6B6B6B;stroke:#263238;stroke-miterlimit:10;" width="24.68" height="3.676"/>
		<path style="fill:#263238;stroke:#263238;stroke-miterlimit:10;" d="M163.353,312.338l-20.791,11.156
			c-0.658,0.353-0.407,1.352,0.34,1.352h7.31l7.414,11.439l5.931-3.813l-6.143-10.38l6.779-8.763
			C164.631,312.762,163.984,311.999,163.353,312.338z"/>
		<polygon style="fill:#263238;stroke:#263238;stroke-miterlimit:10;" points="152.591,367.185 165.801,367.185 163.644,350.2 
			181.977,350.2 181.977,377.357 154.026,377.901 		"/>
		<polygon style="opacity:0.3;" points="173.206,283.283 124.865,331.624 138.961,341.499 176.288,304.172 		"/>
		<polygon style="opacity:0.3;" points="115.802,266.064 73.896,294.241 78.348,258.627 114.99,257.942 		"/>
		<g>
			<path style="fill:#263238;" d="M184.826,379.92h-32.743l-0.32-2.168c-3.55-24.032-20.933-40.474-30.979-48.136
				c-13.669-10.424-47.213-7.935-47.551-7.909l-2.975,0.233l5.199-62.913l5.061,0.418l-4.713,57.026
				c8.902-0.398,35.26-0.655,48.057,9.106c17.709,13.506,29.203,30.926,32.565,49.264h23.269
				c-0.182-16.52-0.841-52.879-2.144-58.839c-1.728-7.898-9.598-55.327-9.932-57.342l5.01-0.831
				c0.082,0.492,8.183,49.315,9.883,57.087c1.77,8.09,2.267,60.225,2.288,62.44L184.826,379.92z"/>
		</g>
		<rect x="111.921" y="260.474" style="fill:#263238;" width="5.449" height="63.655"/>
		<path style="fill:#263238;" d="M123.636,267.798l-7.834-1.735v8.865l7.834-1.735C126.523,272.554,126.523,268.438,123.636,267.798
			z"/>
		<path style="fill:none;stroke:#263238;stroke-width:3;stroke-miterlimit:10;" d="M176.315,290.349l2.896,1.448
			c2.947,1.474,5.03,4.25,5.611,7.494c1.271,7.089,3.355,19.653,3.355,25.836c0,5.786,0.342,14.538,0.581,19.95
			c0.136,3.086-1.102,6.072-3.379,8.159l-2.864,2.625"/>
		
			<line style="fill:none;stroke:#263238;stroke-width:3;stroke-miterlimit:10;" x1="176.585" y1="287.653" x2="176.585" y2="260.154"/>
		<path style="fill:none;stroke:#263238;stroke-width:3;stroke-miterlimit:10;" d="M177.124,266.355h23.245
			c2.945,0,5.333,2.388,5.333,5.333v1.407"/>
		<path style="fill:#263238;stroke:#263238;stroke-miterlimit:10;" d="M200.54,290.619h-1.309v-22.107h1.309
			c2.851,0,5.162,2.311,5.162,5.162v11.783C205.701,288.308,203.39,290.619,200.54,290.619z"/>
		<path style="fill:#92E3A9;stroke:#263238;stroke-miterlimit:10;" d="M183.476,262.495v-1.303c0-5.776-4.682-10.458-10.458-10.458
			H84.719c-5.776,0-10.458,4.682-10.458,10.458v1.303H183.476z"/>
	</g>
</g>
<g id="Floor">
	<line style="fill:none;stroke:#263238;stroke-miterlimit:10;" x1="8.362" y1="448.513" x2="493.304" y2="448.513"/>
</g>
</svg>
